<svg width="157" height="76" viewBox="0 0 323 157" fill="none" xmlns="http://www.w3.org/2000/svg">
<path d="M209.628 61.796C209.628 60.6203 209.209 59.7213 208.377 59.085C207.546 58.4488 206.043 57.8057 203.87 57.1625C201.697 56.5124 199.971 55.7932 198.685 54.9979C196.232 53.4695 195.002 51.4778 195.002 49.0228C195.002 46.872 195.89 45.1016 197.658 43.7116C199.426 42.3215 201.725 41.623 204.555 41.623C206.428 41.623 208.105 41.9619 209.572 42.6466C211.04 43.3312 212.193 44.3063 213.031 45.5719C213.87 46.8374 214.289 48.2344 214.289 49.7766H209.628C209.628 48.3865 209.188 47.2939 208.308 46.5055C207.427 45.7171 206.162 45.3229 204.52 45.3229C202.99 45.3229 201.802 45.648 200.956 46.2911C200.111 46.9412 199.684 47.8402 199.684 49.002C199.684 49.9771 200.139 50.7932 201.054 51.4502C201.969 52.1002 203.472 52.7365 205.568 53.352C207.665 53.9675 209.349 54.6729 210.621 55.4612C211.892 56.2496 212.822 57.1556 213.416 58.1722C214.01 59.1888 214.303 60.3852 214.303 61.7545C214.303 63.9744 213.444 65.7448 211.718 67.0588C209.999 68.3728 207.658 69.0297 204.709 69.0297C202.759 69.0297 200.97 68.6701 199.335 67.9578C197.7 67.2455 196.428 66.2566 195.52 64.9979C194.611 63.7393 194.157 62.2732 194.157 60.5996H198.839C198.839 62.1141 199.342 63.2898 200.355 64.1196C201.369 64.9495 202.815 65.3645 204.702 65.3645C206.33 65.3645 207.553 65.0394 208.377 64.3824C209.216 63.7324 209.628 62.8679 209.628 61.796Z" fill="#0E0042"/>
<path d="M235.527 58.9528C235.527 62.0164 234.821 64.4646 233.416 66.2903C232.012 68.116 230.118 69.0289 227.749 69.0289C225.555 69.0289 223.794 68.3166 222.473 66.885V76.2834H217.973V48.8421H222.117L222.305 50.8546C223.626 49.264 225.422 48.4756 227.693 48.4756C230.139 48.4756 232.054 49.3746 233.437 51.1796C234.828 52.9777 235.52 55.4811 235.52 58.6831V58.9528H235.527ZM231.047 58.5655C231.047 56.5876 230.649 55.0178 229.852 53.856C229.056 52.6941 227.917 52.1132 226.435 52.1132C224.597 52.1132 223.277 52.867 222.473 54.3677V63.1575C223.291 64.6997 224.618 65.4673 226.47 65.4673C227.903 65.4673 229.021 64.8933 229.831 63.7522C230.642 62.6181 231.047 60.8892 231.047 58.5655Z" fill="#0E0042"/>
<path d="M251.297 68.6624C251.101 68.282 250.927 67.6665 250.78 66.809C249.347 68.2889 247.594 69.0289 245.525 69.0289C243.513 69.0289 241.87 68.4618 240.599 67.3276C239.327 66.1935 238.691 64.7896 238.691 63.116C238.691 61.0067 239.481 59.3816 241.067 58.2543C242.653 57.1271 244.917 56.56 247.866 56.56H250.626V55.2598C250.626 54.2363 250.333 53.4134 249.753 52.7979C249.173 52.1824 248.292 51.8712 247.104 51.8712C246.077 51.8712 245.239 52.127 244.589 52.6319C243.932 53.1367 243.61 53.7868 243.61 54.5614H239.11C239.11 53.4756 239.474 52.459 240.2 51.5116C240.927 50.5641 241.919 49.8241 243.17 49.2847C244.421 48.7453 245.819 48.4756 247.363 48.4756C249.704 48.4756 251.577 49.0565 252.974 50.2252C254.372 51.394 255.085 53.033 255.12 55.1423V64.0842C255.12 65.8684 255.371 67.2931 255.881 68.3511V68.6624H251.297ZM246.35 65.4535C247.237 65.4535 248.076 65.2391 248.858 64.8103C249.641 64.3816 250.228 63.8076 250.626 63.0883V59.3539H248.201C246.538 59.3539 245.281 59.6444 244.442 60.2184C243.603 60.7924 243.184 61.6015 243.184 62.6527C243.184 63.5102 243.471 64.1879 244.044 64.6928C244.624 65.2045 245.392 65.4535 246.35 65.4535Z" fill="#0E0042"/>
<path d="M268.069 65.4742C269.194 65.4742 270.124 65.1491 270.865 64.506C271.605 63.8559 271.997 63.0606 272.052 62.1062H276.294C276.245 63.3372 275.854 64.4921 275.127 65.5571C274.4 66.6291 273.408 67.4728 272.164 68.0952C270.92 68.7176 269.572 69.0288 268.125 69.0288C265.323 69.0288 263.101 68.1298 261.459 66.3386C259.817 64.5406 258.999 62.0648 258.999 58.9043V58.4479C258.999 55.4326 259.817 53.0191 261.445 51.2003C263.073 49.3884 265.295 48.4824 268.111 48.4824C270.494 48.4824 272.437 49.1671 273.932 50.5433C275.435 51.9195 276.217 53.7245 276.294 55.9582H272.052C272.004 54.8241 271.612 53.8905 270.878 53.1574C270.145 52.4243 269.208 52.0578 268.076 52.0578C266.623 52.0578 265.498 52.5765 264.708 53.6277C263.919 54.6719 263.52 56.2556 263.506 58.3787V59.091C263.506 61.2418 263.898 62.8462 264.68 63.8974C265.456 64.9486 266.588 65.4742 268.069 65.4742Z" fill="#0E0042"/>
<path d="M288.501 69.0288C285.65 69.0288 283.337 68.1436 281.569 66.3663C279.801 64.589 278.913 62.2238 278.913 59.2708V58.7245C278.913 56.7466 279.298 54.9762 280.073 53.4202C280.842 51.8642 281.925 50.6539 283.323 49.7826C284.72 48.9181 286.272 48.4824 287.991 48.4824C290.716 48.4824 292.826 49.34 294.315 51.062C295.803 52.784 296.544 55.2183 296.544 58.3718V60.1699H283.455C283.588 61.8089 284.14 63.1021 285.112 64.0565C286.083 65.0108 287.299 65.488 288.766 65.488C290.828 65.488 292.505 64.665 293.805 63.0122L296.229 65.3013C295.426 66.4838 294.357 67.4036 293.015 68.0606C291.673 68.7038 290.171 69.0288 288.501 69.0288ZM287.963 52.044C286.726 52.044 285.734 52.4727 284.972 53.3234C284.21 54.1809 283.728 55.3704 283.518 56.8988H292.086V56.5668C291.988 55.0799 291.589 53.9527 290.884 53.1851C290.185 52.4313 289.214 52.044 287.963 52.044Z" fill="#0E0042"/>
<path d="M198.905 83.7818H190.498V106.714H185.851V83.7818H177.521V80.0474H198.898V83.7818H198.905Z" fill="#0E0042"/>
<path d="M197.307 96.6246C197.307 94.6813 197.698 92.9316 198.474 91.3756C199.25 89.8196 200.34 88.6232 201.751 87.7864C203.156 86.9496 204.777 86.5347 206.601 86.5347C209.305 86.5347 211.5 87.3922 213.184 89.1142C214.868 90.8362 215.776 93.1184 215.916 95.9676L215.937 97.0119C215.937 98.969 215.56 100.712 214.798 102.254C214.036 103.796 212.953 104.986 211.542 105.829C210.13 106.673 208.495 107.095 206.643 107.095C203.82 107.095 201.556 106.161 199.858 104.301C198.16 102.441 197.314 99.9579 197.314 96.8528V96.6246H197.307ZM201.807 97.0119C201.807 99.052 202.234 100.649 203.086 101.804C203.939 102.959 205.12 103.533 206.643 103.533C208.166 103.533 209.34 102.945 210.186 101.777C211.031 100.608 211.451 98.886 211.451 96.6315C211.451 94.626 211.017 93.0423 210.144 91.8666C209.27 90.691 208.089 90.1101 206.601 90.1101C205.134 90.1101 203.967 90.6841 203.1 91.839C202.234 92.9939 201.807 94.7159 201.807 97.0119Z" fill="#0E0042"/>
<path d="M243.703 99.8463C243.703 98.6706 243.283 97.7716 242.452 97.1353C241.62 96.4991 240.118 95.8559 237.945 95.2128C235.771 94.5627 234.045 93.8435 232.76 93.0482C230.307 91.5198 229.077 89.5281 229.077 87.0731C229.077 84.9223 229.964 83.1519 231.732 81.7619C233.5 80.3718 235.799 79.6733 238.629 79.6733C240.502 79.6733 242.179 80.0122 243.647 80.6969C245.114 81.3815 246.267 82.3566 247.106 83.6222C247.944 84.8877 248.364 86.2847 248.364 87.8269H243.703C243.703 86.4368 243.262 85.3442 242.382 84.5558C241.502 83.7674 240.237 83.3732 238.595 83.3732C237.064 83.3732 235.876 83.6982 235.031 84.3414C234.185 84.9915 233.759 85.8905 233.759 87.0523C233.759 88.0274 234.213 88.8435 235.129 89.5005C236.044 90.1505 237.546 90.7868 239.643 91.4023C241.739 92.0178 243.423 92.7232 244.695 93.5115C245.967 94.2999 246.896 95.2059 247.49 96.2225C248.084 97.2391 248.378 98.4355 248.378 99.8048C248.378 102.025 247.518 103.795 245.792 105.109C244.073 106.423 241.732 107.08 238.783 107.08C236.834 107.08 235.045 106.72 233.409 106.008C231.774 105.296 230.502 104.307 229.594 103.048C228.686 101.79 228.231 100.323 228.231 98.6499H232.913C232.913 100.164 233.416 101.34 234.43 102.17C235.443 103 236.889 103.415 238.776 103.415C240.404 103.415 241.627 103.09 242.452 102.433C243.29 101.79 243.703 100.925 243.703 99.8463Z" fill="#0E0042"/>
<path d="M257.693 82.0811V86.9013H261.229V90.2001H257.693V101.265C257.693 102.019 257.847 102.572 258.148 102.904C258.448 103.243 258.993 103.409 259.769 103.409C260.286 103.409 260.81 103.347 261.341 103.222V106.666C260.314 106.95 259.329 107.088 258.378 107.088C254.926 107.088 253.193 105.2 253.193 101.424V90.1932H249.902V86.8944H253.193V82.0742H257.693V82.0811Z" fill="#0E0042"/>
<path d="M276.796 104.779C275.475 106.321 273.603 107.089 271.171 107.089C268.998 107.089 267.355 106.46 266.237 105.201C265.119 103.942 264.56 102.124 264.56 99.7447V86.9023H269.061V99.6894C269.061 102.207 270.116 103.465 272.226 103.465C274.406 103.465 275.888 102.691 276.649 101.142V86.9093H281.15V106.729H276.908L276.796 104.779Z" fill="#0E0042"/>
<path d="M284.881 96.6567C284.881 93.6069 285.593 91.1518 287.026 89.2984C288.458 87.445 290.373 86.5253 292.784 86.5253C294.908 86.5253 296.62 87.2583 297.927 88.7244V78.5723H302.427V106.712H298.353L298.13 104.658C296.788 106.269 294.992 107.079 292.742 107.079C290.394 107.079 288.5 106.145 287.047 104.278C285.607 102.41 284.881 99.8725 284.881 96.6567ZM289.381 97.044C289.381 99.0564 289.772 100.633 290.555 101.76C291.337 102.888 292.449 103.455 293.895 103.455C295.733 103.455 297.082 102.646 297.927 101.02V92.5557C297.103 90.9651 295.768 90.1767 293.93 90.1767C292.476 90.1767 291.351 90.7507 290.562 91.8918C289.772 93.0329 289.381 94.748 289.381 97.044Z" fill="#0E0042"/>
<path d="M314.132 100.346L318.206 86.9023H323L315.041 109.731C313.818 113.064 311.75 114.731 308.822 114.731C308.165 114.731 307.445 114.62 306.655 114.399V110.941L307.508 110.996C308.64 110.996 309.499 110.789 310.072 110.381C310.645 109.973 311.1 109.288 311.435 108.32L312.085 106.619L305.048 86.9023H309.898L314.132 100.346Z" fill="#0E0042"/>
<path d="M94.2071 156.252C94.2421 156.148 94.263 156.031 94.3189 155.948C103.319 143.5 109.916 129.814 115.429 115.588C119.217 105.809 118.253 96.3764 112.746 87.4275C111.181 84.8826 109.036 82.8494 106.59 81.1205C100.077 76.5216 92.9493 73.3473 85.1438 71.5423C80.378 70.4427 75.8079 68.7 71.4544 66.4524C70.1826 65.7954 68.9877 65.0209 67.8487 64.1702C61.1403 59.1564 63.055 49.4122 68.6593 45.8368C71.5313 44.0042 74.6619 43.1674 78.0091 42.877C81.9154 42.5381 85.7797 42.7179 89.4763 44.0872C95.2973 46.238 98.4698 50.4634 99.0707 56.5699C99.2873 58.7553 99.2524 58.7553 101.489 58.7553C105.968 58.7553 110.454 58.7345 114.933 58.776C115.835 58.7829 116.093 58.5201 116.037 57.6419C115.367 46.2725 109.56 38.285 99.462 33.2504C92.7746 29.917 85.5631 29.0457 78.1559 29.4191C71.7969 29.7372 65.7104 31.072 60.141 34.2462C59.0369 34.8756 57.9817 35.5879 56.8287 36.3071C56.7519 35.8092 57.1013 35.5395 57.3109 35.2352C62.1815 28.3264 67.5832 21.8188 73.0966 15.408C77.3173 10.4979 81.7267 5.75378 86.1011 0.98199C86.8838 0.131366 87.6594 -0.0968498 88.7565 0.0345474C104.906 1.9156 119.245 7.95987 131.606 18.4094C145.848 30.4495 154.757 45.6432 158.363 63.8452C159.328 68.7069 159.691 73.6239 159.698 78.6032C159.733 96.985 153.947 113.375 142.459 127.725C130.244 142.967 114.346 152.407 95.0806 156.28C94.8011 156.321 94.5076 156.446 94.2071 156.252Z" fill="#7C69DE"/>
<path d="M45.325 7.36523C43.8436 11.2449 42.5228 14.924 41.5166 18.7C39.6089 25.8715 38.4978 33.1468 38.7353 40.5742C39.0778 51.1897 42.1105 60.8854 49.0356 69.1842C54.577 75.8232 61.6208 80.4221 69.5172 83.8592C76.0649 86.7084 82.92 88.5203 89.9219 89.8412C94.3103 90.6711 98.559 94.8827 99.0621 99.7375C99.8028 106.888 96.3578 111.992 89.2371 113.749C83.3532 115.194 77.4205 115.056 71.6275 113.182C64.6955 110.934 60.8172 105.65 60.6495 98.4304C60.6355 97.6766 60.3979 97.5176 59.6852 97.5176C54.7168 97.5452 49.7413 97.5521 44.7729 97.5107C43.8924 97.5037 43.6269 97.7181 43.6619 98.6102C44.0182 108.064 48.3298 115.346 56.1074 120.657C62.3895 124.945 69.4683 127.089 77.0222 127.711C84.101 128.292 91.0819 127.76 97.8741 125.526C97.972 125.491 98.0908 125.519 98.2026 125.519C98.2305 125.803 98.0139 125.92 97.8741 126.065C88.72 135.318 78.7692 143.576 67.316 149.959C64.3601 151.605 61.2924 153.009 58.064 154.074C57.3163 154.323 56.6314 154.309 55.8767 154.074C27.7504 145.249 6.8355 121.874 1.37094 93.133C-5.1977 58.5687 12.2931 23.6862 44.0811 7.94615C44.4165 7.77326 44.759 7.62111 45.325 7.36523Z" fill="#A89FFF"/>
</svg>
