<svg width="70" height="70" viewBox="0 0 70 70" fill="none" xmlns="http://www.w3.org/2000/svg">
<circle cx="35" cy="35" r="34.5" fill="white" stroke="#80878F"/>
<path fill-rule="evenodd" clip-rule="evenodd" d="M47.9617 20.3833C48.3736 20.2099 48.8244 20.1501 49.2672 20.2101C49.71 20.2701 50.1287 20.4477 50.4796 20.7244C50.8304 21.0011 51.1008 21.3668 51.2624 21.7834C51.424 22.2 51.4709 22.6523 51.3984 23.0933L47.6184 46.0216C47.2517 48.2333 44.8251 49.5016 42.7967 48.3999C41.1001 47.4783 38.5801 46.0583 36.3134 44.5766C35.1801 43.8349 31.7084 41.4599 32.1351 39.7699C32.5017 38.3249 38.3351 32.8949 41.6684 29.6666C42.9767 28.3983 42.3801 27.6666 40.8351 28.8333C36.9967 31.7299 30.8384 36.1349 28.8017 37.3749C27.0051 38.4683 26.0684 38.6549 24.9484 38.4683C22.9051 38.1283 21.0101 37.6016 19.4634 36.9599C17.3734 36.0933 17.4751 33.2199 19.4617 32.3833L47.9617 20.3833Z" fill="#26A4E5"/>
</svg>
