<svg width="70" height="70" viewBox="0 0 70 70" fill="none" xmlns="http://www.w3.org/2000/svg">
<circle cx="35" cy="35" r="34.5" fill="white" stroke="#80878F"/>
<path d="M50.6716 45.6339H46.8699C45.4316 45.6339 44.9983 44.4689 42.4199 41.8889C40.1666 39.7173 39.2149 39.4473 38.6449 39.4473C37.8566 39.4473 37.6416 39.6639 37.6416 40.7489V44.1689C37.6416 45.0939 37.3416 45.6356 34.9249 45.6356C32.5804 45.4781 30.3069 44.7658 28.2915 43.5575C26.2762 42.3492 24.5768 40.6794 23.3333 38.6856C20.3806 35.0106 18.3261 30.6974 17.3333 26.0889C17.3333 25.5189 17.5499 25.0023 18.6366 25.0023H22.4366C23.4133 25.0023 23.7649 25.4373 24.1483 26.4423C25.9933 31.8723 29.1416 36.5956 30.4199 36.5956C30.9099 36.5956 31.1233 36.3789 31.1233 35.1573V29.5639C30.9616 27.0123 29.6066 26.7973 29.6066 25.8739C29.6237 25.6303 29.7352 25.403 29.9172 25.2402C30.0993 25.0775 30.3376 24.9921 30.5816 25.0023H36.5549C37.3716 25.0023 37.6416 25.4089 37.6416 26.3856V33.9356C37.6416 34.7506 37.9916 35.0206 38.2383 35.0206C38.7283 35.0206 39.1049 34.7506 40.0033 33.8539C41.9288 31.5056 43.502 28.8892 44.6733 26.0873C44.7931 25.7509 45.0198 25.4629 45.3186 25.2673C45.6174 25.0717 45.972 24.9792 46.3283 25.0039H50.1299C51.2699 25.0039 51.5116 25.5739 51.2699 26.3873C49.8872 29.4846 48.1763 32.4248 46.1666 35.1573C45.7566 35.7823 45.5933 36.1073 46.1666 36.8406C46.5432 37.4106 47.8766 38.5239 48.7716 39.5823C50.0749 40.8823 51.1566 42.3856 51.9749 44.0323C52.3016 45.0923 51.7566 45.6339 50.6716 45.6339Z" fill="#0077FE"/>
</svg>
